<?xml version="1.0" encoding="UTF-8"?>
<svg version="1.1" xmlns="http://www.w3.org/2000/svg" width="1043" height="265">
<path d="M0 0 C45.53795055 -0.1209091 45.53795055 -0.1209091 64.67382812 -0.14648438 C77.86763014 -0.16426001 91.06137452 -0.18511566 104.25512695 -0.22631836 C113.86562138 -0.25631649 123.47606888 -0.27559764 133.08660883 -0.28226548 C138.17046479 -0.28616016 143.25418658 -0.29524754 148.33799934 -0.31719017 C153.13388871 -0.3377202 157.92959004 -0.34380079 162.72551918 -0.33932304 C164.47530391 -0.34014092 166.22509566 -0.34600736 167.97484207 -0.35761642 C193.20184714 -0.51662408 214.82700208 6.11577911 233.375 23.9375 C247.26218094 38.5212871 256.20356793 57.5095454 256.12025452 77.82077026 C256.12153615 78.97389652 256.12153615 78.97389652 256.12284368 80.15031826 C256.12448555 82.71595884 256.11899835 85.28153346 256.11352539 87.84716797 C256.11324321 89.69039407 256.11340185 91.53362028 256.1139679 93.37684631 C256.11425468 98.37427538 256.10837712 103.37168042 256.10139394 108.36910391 C256.09514064 113.59414136 256.09455503 118.81917936 256.09336853 124.04421997 C256.09026105 133.93570513 256.0820555 143.82717923 256.07201904 153.71865952 C256.05874928 167.087052 256.05335329 180.4554475 256.04751682 193.82384491 C256.03811524 214.88257156 256.01819241 235.94127487 256 257 C227.95 257 199.9 257 171 257 C171 207.5 171 158 171 107 C158.08584085 109.23939776 158.08584085 109.23939776 145.8125 113 C144.64702637 113.44230957 144.64702637 113.44230957 143.45800781 113.89355469 C116.48397628 124.50927979 88.8114372 141.69685287 76.59765625 169.15234375 C71.59301976 182.42086398 71.30371404 195.83839518 77 209 C78.70042242 212.01850134 80.61834882 214.49095817 83 217 C83.57492187 217.61488281 84.14984375 218.22976562 84.7421875 218.86328125 C92.93457097 226.80071503 103.89814465 230.35158732 115.16015625 230.30078125 C119.52248658 229.83874626 123.43544229 228.39509358 127.53125 226.875 C130 226 130 226 132 226 C130.01989003 231.55016045 126.67592851 235.47331074 123 240 C122.57460938 240.56203125 122.14921875 241.1240625 121.7109375 241.703125 C111.91703246 254.36191383 95.31628193 261.26373001 80 264 C57.31662058 265.65563778 35.65417012 261.74764785 17.87109375 246.6875 C17.25363281 246.130625 16.63617187 245.57375 16 245 C15.41347656 244.505 14.82695313 244.01 14.22265625 243.5 C0.90712561 231.42242119 -7.33582162 211.98193258 -8.3203125 194.29296875 C-8.98328825 174.55272258 -4.19800873 155.20791123 9.5625 140.4375 C11.35000831 138.59740903 13.17049113 136.79906318 15 135 C15.59425781 134.34773437 16.18851563 133.69546875 16.80078125 133.0234375 C35.69132783 112.49227273 66.88717235 102.79703288 92.875 95.75 C93.99430908 95.44497559 95.11361816 95.13995117 96.2668457 94.82568359 C108.76152886 91.576276 121.24921293 89.45207444 134 87 C89.78 86.67 45.56 86.34 0 86 C0 57.62 0 29.24 0 0 Z " fill="#ADF132" transform="translate(787,1)"/>
<path d="M0 0 C45.53795055 -0.1209091 45.53795055 -0.1209091 64.67382812 -0.14648438 C77.86763014 -0.16426001 91.06137452 -0.18511566 104.25512695 -0.22631836 C113.86562138 -0.25631649 123.47606888 -0.27559764 133.08660883 -0.28226548 C138.17046479 -0.28616016 143.25418658 -0.29524754 148.33799934 -0.31719017 C153.13388871 -0.3377202 157.92959004 -0.34380079 162.72551918 -0.33932304 C164.47530391 -0.34014092 166.22509566 -0.34600736 167.97484207 -0.35761642 C193.20184714 -0.51662408 214.82700208 6.11577911 233.375 23.9375 C247.26218094 38.5212871 256.20356793 57.5095454 256.12025452 77.82077026 C256.12153615 78.97389652 256.12153615 78.97389652 256.12284368 80.15031826 C256.12448555 82.71595884 256.11899835 85.28153346 256.11352539 87.84716797 C256.11324321 89.69039407 256.11340185 91.53362028 256.1139679 93.37684631 C256.11425468 98.37427538 256.10837712 103.37168042 256.10139394 108.36910391 C256.09514064 113.59414136 256.09455503 118.81917936 256.09336853 124.04421997 C256.09026105 133.93570513 256.0820555 143.82717923 256.07201904 153.71865952 C256.05874928 167.087052 256.05335329 180.4554475 256.04751682 193.82384491 C256.03811524 214.88257156 256.01819241 235.94127487 256 257 C227.95 257 199.9 257 171 257 C171 207.5 171 158 171 107 C158.08584085 109.23939776 158.08584085 109.23939776 145.8125 113 C144.64702637 113.44230957 144.64702637 113.44230957 143.45800781 113.89355469 C116.48397628 124.50927979 88.8114372 141.69685287 76.59765625 169.15234375 C71.59301976 182.42086398 71.30371404 195.83839518 77 209 C78.70042242 212.01850134 80.61834882 214.49095817 83 217 C83.57492188 217.61488281 84.14984375 218.22976562 84.7421875 218.86328125 C92.93457097 226.80071503 103.89814465 230.35158732 115.16015625 230.30078125 C119.52248658 229.83874626 123.43544229 228.39509358 127.53125 226.875 C130 226 130 226 132 226 C130.01989003 231.55016045 126.67592851 235.47331074 123 240 C122.57460937 240.56203125 122.14921875 241.1240625 121.7109375 241.703125 C111.91703246 254.36191383 95.31628193 261.26373001 80 264 C57.31662058 265.65563778 35.65417012 261.74764785 17.87109375 246.6875 C17.25363281 246.130625 16.63617187 245.57375 16 245 C15.41347656 244.505 14.82695312 244.01 14.22265625 243.5 C0.90712561 231.42242119 -7.33582162 211.98193258 -8.3203125 194.29296875 C-8.98328825 174.55272258 -4.19800873 155.20791123 9.5625 140.4375 C11.35000831 138.59740903 13.17049113 136.79906318 15 135 C15.59425781 134.34773437 16.18851563 133.69546875 16.80078125 133.0234375 C35.69132783 112.49227273 66.88717235 102.79703288 92.875 95.75 C93.99430908 95.44497559 95.11361816 95.13995117 96.2668457 94.82568359 C108.76152886 91.576276 121.24921293 89.45207444 134 87 C89.78 86.67 45.56 86.34 0 86 C0 57.62 0 29.24 0 0 Z " fill="#243AE1" transform="translate(8,1)"/>
<path d="M0 0 C2.23585497 0.00748372 4.47171662 0.01316653 6.70758057 0.01715088 C12.52063926 0.03223967 18.33328201 0.07137196 24.1461792 0.1159668 C31.15909737 0.16458321 38.17215658 0.18253347 45.18519592 0.20578003 C55.77479266 0.24423702 66.36348134 0.32100718 76.953125 0.390625 C76.953125 28.770625 76.953125 57.150625 76.953125 86.390625 C70.43949219 86.41640625 63.92585937 86.4421875 57.21484375 86.46875 C53.07222704 86.49393586 48.92968207 86.52028223 44.78710938 86.55078125 C38.22127064 86.59901151 31.65559812 86.6430956 25.08959961 86.66162109 C19.79202886 86.67683779 14.49489489 86.7113722 9.1975193 86.75893402 C7.18311181 86.77369622 5.16864194 86.78166303 3.15418053 86.78250885 C-12.40813636 86.79560685 -25.02267465 88.19503798 -36.984375 99.16796875 C-46.05685255 108.72926513 -48.61722885 119.94881905 -48.390625 132.72265625 C-47.85442634 143.77951947 -41.74412498 153.14500748 -33.859375 160.578125 C-26.06516577 166.95996075 -17.02200066 169.52991872 -7.16918945 169.59594727 C-6.26166931 169.60584686 -5.35414917 169.61574646 -4.41912842 169.62594604 C-1.41616433 169.6575612 1.58681558 169.6823186 4.58984375 169.70703125 C6.67064325 169.72760076 8.75143856 169.74859723 10.83222961 169.77000427 C16.31158058 169.82522524 21.79096926 169.87463445 27.27038574 169.92285156 C33.84332662 169.98189352 40.4161985 170.04812166 46.98908234 170.11315155 C56.97705446 170.21116139 66.96507062 170.30001729 76.953125 170.390625 C76.953125 198.770625 76.953125 227.150625 76.953125 256.390625 C52.41990329 256.59116905 52.41990329 256.59116905 41.81835938 256.63476562 C34.63449221 256.66444968 27.45094895 256.69924449 20.26733398 256.76782227 C14.46414244 256.82286395 8.66129908 256.85219484 2.85786629 256.86501122 C0.66348871 256.87412347 -1.53087371 256.89190928 -3.72509956 256.91927528 C-39.41067016 257.34591156 -71.58034925 246.07084968 -97.87890625 221.53125 C-121.48148189 198.2263645 -134.96706162 166.77276127 -135.33935547 133.70092773 C-135.42483657 119.19518204 -135.22335551 105.41393704 -131.046875 91.390625 C-130.83256836 90.65650391 -130.61826172 89.92238281 -130.39746094 89.16601562 C-120.81713954 57.34317219 -98.60144739 30.84223696 -69.69189453 14.66625977 C-47.61134852 2.82177839 -24.75475542 -0.2477038 0 0 Z " fill="#243AE1" transform="translate(672.046875,-0.390625)"/>
<path d="M0 0 C28.38 0 56.76 0 86 0 C86 33.33 86 66.66 86 101 C86.66 101 87.32 101 88 101 C88.01417969 100.13503906 88.02835937 99.27007812 88.04296875 98.37890625 C89.08470793 70.87136081 95.94373985 39.83432905 115 19 C115.56332031 18.35675781 116.12664062 17.71351562 116.70703125 17.05078125 C125.83686129 7.19398582 139.87916015 0.54141329 153.27909851 -0.17541504 C157.14664515 -0.23061793 161.01133984 -0.22571803 164.87890625 -0.1953125 C166.12796753 -0.19329834 167.37702881 -0.19128418 168.66394043 -0.18920898 C173.29683137 -0.17880337 177.92966966 -0.15088109 182.5625 -0.125 C198.1240625 -0.063125 198.1240625 -0.063125 214 0 C214 28.05 214 56.1 214 85 C175.875 85.3125 175.875 85.3125 163.92138672 85.38793945 C160.32641047 85.42458486 160.32641047 85.42458486 156.73147583 85.4650116 C155.15380205 85.4809609 153.57606551 85.49138305 151.99832153 85.49711609 C134.03442424 85.57091524 116.75459882 87.60076791 103.09765625 100.61328125 C90.57623768 114.86018394 86.71932214 132.42997485 86.68115234 150.8972168 C86.67110672 152.03023727 86.6610611 153.16325775 86.65071106 154.33061218 C86.62007731 158.0368097 86.60289923 161.74293565 86.5859375 165.44921875 C86.56720992 168.03425199 86.54763533 170.61927921 86.5272522 173.20429993 C86.48130841 179.2883709 86.44384052 185.37243873 86.41057932 191.45659047 C86.36841902 199.07203455 86.31311558 206.68737635 86.2578125 214.30273438 C86.15935514 227.86843305 86.08058497 241.43415727 86 255 C57.62 255 29.24 255 0 255 C0 170.85 0 86.7 0 0 Z " fill="#233AE2" transform="translate(308,1)"/>
</svg>
